<svg height="673" width="827.5" xmlns="http://www.w3.org/2000/svg">
<defs>
<marker id="head" markerHeight="10" markerWidth="25" orient="auto" refX="32.5" refY="5">
<path d="M 0 0 L 25 5 L 0 10 z" fill="black"/>
</marker>
</defs>
<line marker-end="url(#head)" style="stroke:black;" x1="195" x2="195" y1="241" y2="313">
<!-- (11, 9) -->
</line>
<line marker-end="url(#head)" style="stroke:black;" x1="447.5" x2="483.5" y1="169" y2="241">
<!-- (22, 20) -->
</line>
<line marker-end="url(#head)" style="stroke:black;" x1="159" x2="411" y1="529" y2="601">
<!-- (59, 0) -->
</line>
<line marker-end="url(#head)" style="stroke:black;" x1="483.5" x2="519.5" y1="241" y2="313">
<!-- (20, 17) -->
</line>
<line marker-end="url(#head)" style="stroke:black;" x1="303" x2="339" y1="385" y2="457">
<!-- (8, 1) -->
</line>
<line marker-end="url(#head)" style="stroke:black;" x1="339" x2="411" y1="529" y2="601">
<!-- (58, 0) -->
</line>
<line marker-end="url(#head)" style="stroke:black;" x1="735.5" x2="663" y1="313" y2="385">
<!-- (21, 6) -->
</line>
<line marker-end="url(#head)" style="stroke:black;" x1="591.5" x2="663" y1="313" y2="385">
<!-- (12, 6) -->
</line>
<line marker-end="url(#head)" style="stroke:black;" x1="231" x2="339" y1="385" y2="457">
<!-- (5, 1) -->
</line>
<line style="stroke:black;" x1="159" x2="159" y1="457" y2="529">
<!-- (60, 59) -->
</line>
<line marker-end="url(#head)" style="stroke:black;" x1="447.5" x2="447.5" y1="97" y2="169">
<!-- (23, 22) -->
</line>
<line marker-end="url(#head)" style="stroke:black;" x1="411.5" x2="447.5" y1="241" y2="169">
<!-- (56, 22) -->
</line>
<line marker-end="url(#head)" style="stroke:black;" x1="663.5" x2="663" y1="313" y2="385">
<!-- (16, 6) -->
</line>
<line marker-end="url(#head)" style="stroke:black;" x1="411" x2="411" y1="529" y2="601">
<!-- (3, 0) -->
</line>
<line marker-end="url(#head)" style="stroke:black;" x1="87" x2="411" y1="529" y2="601">
<!-- (2, 0) -->
</line>
<line marker-end="url(#head)" style="stroke:black;" x1="663.5" x2="663.5" y1="241" y2="313">
<!-- (18, 16) -->
</line>
<line marker-end="url(#head)" style="stroke:black;" x1="411.5" x2="411.5" y1="385" y2="313">
<!-- (7, 55) -->
</line>
<line marker-end="url(#head)" style="stroke:black;" x1="411.5" x2="339" y1="385" y2="457">
<!-- (7, 1) -->
</line>
<line marker-end="url(#head)" style="stroke:black;" x1="87" x2="87" y1="457" y2="529">
<!-- (4, 2) -->
</line>
<line marker-end="url(#head)" style="stroke:black;" x1="555.5" x2="519.5" y1="241" y2="313">
<!-- (24, 17) -->
</line>
<line marker-end="url(#head)" style="stroke:black;" x1="357.25" x2="339" y1="385" y2="457">
<!-- (57, 1) -->
</line>
<line marker-end="url(#head)" style="stroke:black;" x1="195" x2="303" y1="313" y2="385">
<!-- (9, 8) -->
</line>
<line marker-end="url(#head)" style="stroke:black;" x1="627" x2="411" y1="529" y2="601">
<!-- (19, 0) -->
</line>
<line marker-end="url(#head)" style="stroke:black;" x1="663" x2="339" y1="385" y2="457">
<!-- (6, 1) -->
</line>
<line style="stroke:black;" x1="411.5" x2="411.5" y1="313" y2="241">
<!-- (55, 56) -->
</line>
<line marker-end="url(#head)" style="stroke:black;" x1="159" x2="339" y1="385" y2="457">
<!-- (10, 1) -->
</line>
<line marker-end="url(#head)" style="stroke:black;" x1="159" x2="87" y1="385" y2="457">
<!-- (10, 4) -->
</line>
<line style="stroke:black;" x1="159" x2="159" y1="385" y2="457">
<!-- (10, 60) -->
</line>
<line marker-end="url(#head)" style="stroke:black;" x1="267" x2="159" y1="313" y2="385">
<!-- (15, 10) -->
</line>
<line marker-end="url(#head)" style="stroke:black;" x1="267" x2="411.5" y1="313" y2="385">
<!-- (15, 7) -->
</line>
<line style="stroke:black;" x1="267" x2="357.25" y1="313" y2="385">
<!-- (15, 57) -->
</line>
<line marker-end="url(#head)" style="stroke:black;" x1="483" x2="411" y1="529" y2="601">
<!-- (13, 0) -->
</line>
<line marker-end="url(#head)" style="stroke:black;" x1="519.5" x2="411.5" y1="313" y2="385">
<!-- (17, 7) -->
</line>
<line marker-end="url(#head)" style="stroke:black;" x1="555" x2="411" y1="529" y2="601">
<!-- (14, 0) -->
</line>
<line style="stroke:black;" x1="339" x2="339" y1="457" y2="529">
<!-- (1, 58) -->
</line>
<rect height="25" rx="6.25" ry="4.166666666666667" style="fill:white;stroke:black;" width="40" x="175" y="228.5"/>
<text dominant-baseline="middle" text-anchor="middle" x="195" y="241">
11
</text>
<rect height="25" rx="6.25" ry="4.166666666666667" style="fill:white;stroke:black;" width="40" x="427.5" y="156.5"/>
<text dominant-baseline="middle" text-anchor="middle" x="447.5" y="169">
22
</text>
<rect height="25" rx="6.25" ry="4.166666666666667" style="fill:white;stroke:black;" width="40" x="463.5" y="228.5"/>
<text dominant-baseline="middle" text-anchor="middle" x="483.5" y="241">
20
</text>
<rect height="25" rx="6.25" ry="4.166666666666667" style="fill:white;stroke:black;" width="30" x="288" y="372.5"/>
<text dominant-baseline="middle" text-anchor="middle" x="303" y="385">
8
</text>
<rect height="25" rx="6.25" ry="4.166666666666667" style="fill:white;stroke:black;" width="40" x="715.5" y="300.5"/>
<text dominant-baseline="middle" text-anchor="middle" x="735.5" y="313">
21
</text>
<rect height="25" rx="6.25" ry="4.166666666666667" style="fill:white;stroke:black;" width="40" x="571.5" y="300.5"/>
<text dominant-baseline="middle" text-anchor="middle" x="591.5" y="313">
12
</text>
<rect height="25" rx="6.25" ry="4.166666666666667" style="fill:white;stroke:black;" width="30" x="216" y="372.5"/>
<text dominant-baseline="middle" text-anchor="middle" x="231" y="385">
5
</text>
<rect height="25" rx="6.25" ry="4.166666666666667" style="fill:white;stroke:black;" width="40" x="427.5" y="84.5"/>
<text dominant-baseline="middle" text-anchor="middle" x="447.5" y="97">
23
</text>
<rect height="25" rx="6.25" ry="4.166666666666667" style="fill:white;stroke:black;" width="40" x="643.5" y="300.5"/>
<text dominant-baseline="middle" text-anchor="middle" x="663.5" y="313">
16
</text>
<rect height="25" rx="6.25" ry="4.166666666666667" style="fill:white;stroke:black;" width="30" x="396" y="516.5"/>
<text dominant-baseline="middle" text-anchor="middle" x="411" y="529">
3
</text>
<rect height="25" rx="6.25" ry="4.166666666666667" style="fill:white;stroke:black;" width="30" x="72" y="516.5"/>
<text dominant-baseline="middle" text-anchor="middle" x="87" y="529">
2
</text>
<rect height="25" rx="6.25" ry="4.166666666666667" style="fill:white;stroke:black;" width="40" x="643.5" y="228.5"/>
<text dominant-baseline="middle" text-anchor="middle" x="663.5" y="241">
18
</text>
<rect height="25" rx="6.25" ry="4.166666666666667" style="fill:white;stroke:black;" width="30" x="396.5" y="372.5"/>
<text dominant-baseline="middle" text-anchor="middle" x="411.5" y="385">
7
</text>
<rect height="25" rx="6.25" ry="4.166666666666667" style="fill:white;stroke:black;" width="30" x="72" y="444.5"/>
<text dominant-baseline="middle" text-anchor="middle" x="87" y="457">
4
</text>
<rect height="25" rx="6.25" ry="4.166666666666667" style="fill:white;stroke:black;" width="40" x="535.5" y="228.5"/>
<text dominant-baseline="middle" text-anchor="middle" x="555.5" y="241">
24
</text>
<rect height="25" rx="6.25" ry="4.166666666666667" style="fill:white;stroke:black;" width="30" x="396" y="588.5"/>
<text dominant-baseline="middle" text-anchor="middle" x="411" y="601">
0
</text>
<rect height="25" rx="6.25" ry="4.166666666666667" style="fill:white;stroke:black;" width="30" x="180" y="300.5"/>
<text dominant-baseline="middle" text-anchor="middle" x="195" y="313">
9
</text>
<rect height="25" rx="6.25" ry="4.166666666666667" style="fill:white;stroke:black;" width="40" x="607" y="516.5"/>
<text dominant-baseline="middle" text-anchor="middle" x="627" y="529">
19
</text>
<rect height="25" rx="6.25" ry="4.166666666666667" style="fill:white;stroke:black;" width="30" x="648" y="372.5"/>
<text dominant-baseline="middle" text-anchor="middle" x="663" y="385">
6
</text>
<rect height="25" rx="6.25" ry="4.166666666666667" style="fill:white;stroke:black;" width="40" x="391.5" y="300.5"/>
<text dominant-baseline="middle" text-anchor="middle" x="411.5" y="313">
55
</text>
<rect height="25" rx="6.25" ry="4.166666666666667" style="fill:white;stroke:black;" width="40" x="139" y="372.5"/>
<text dominant-baseline="middle" text-anchor="middle" x="159" y="385">
10
</text>
<rect height="25" rx="6.25" ry="4.166666666666667" style="fill:white;stroke:black;" width="40" x="247" y="300.5"/>
<text dominant-baseline="middle" text-anchor="middle" x="267" y="313">
15
</text>
<rect height="25" rx="6.25" ry="4.166666666666667" style="fill:white;stroke:black;" width="40" x="463" y="516.5"/>
<text dominant-baseline="middle" text-anchor="middle" x="483" y="529">
13
</text>
<rect height="25" rx="6.25" ry="4.166666666666667" style="fill:white;stroke:black;" width="40" x="499.5" y="300.5"/>
<text dominant-baseline="middle" text-anchor="middle" x="519.5" y="313">
17
</text>
<rect height="25" rx="6.25" ry="4.166666666666667" style="fill:white;stroke:black;" width="40" x="535" y="516.5"/>
<text dominant-baseline="middle" text-anchor="middle" x="555" y="529">
14
</text>
<rect height="25" rx="6.25" ry="4.166666666666667" style="fill:white;stroke:black;" width="30" x="324" y="444.5"/>
<text dominant-baseline="middle" text-anchor="middle" x="339" y="457">
1
</text>
</svg>
